<svg xmlns="http://www.w3.org/2000/svg" viewBox="-0.39 -0.81 0.78 1.62" preserveAspectRatio="xMidYMid meet" shape-rendering="geometricPrecision"><metadata>Home Gym Creator deterministic top view from surge-compact-treadmill.glb</metadata><path d="M-0.3075 -0.7145L-0.2725 -0.73L-0.3075 -0.73ZM-0.3075 -0.73L-0.2725 -0.73L-0.2725 -0.7455ZM0.2725 -0.7145L0.3075 -0.73L0.2725 -0.73ZM0.2725 -0.73L0.3075 -0.73L0.3075 -0.7455ZM-0.3075 -0.7145L-0.2725 -0.7145L-0.2725 -0.73ZM-0.3075 -0.73L-0.2725 -0.7455L-0.3075 -0.7455ZM0.2725 -0.7145L0.3075 -0.7145L0.3075 -0.73ZM0.2725 -0.73L0.3075 -0.7455L0.2725 -0.7455ZM-0.3075 -0.7006L-0.2725 -0.7145L-0.3075 -0.7145ZM-0.3075 -0.7455L-0.2725 -0.7455L-0.2725 -0.7594ZM0.2725 -0.7006L0.3075 -0.7145L0.2725 -0.7145ZM0.2725 -0.7455L0.3075 -0.7455L0.3075 -0.7594ZM-0.3075 -0.7006L-0.2725 -0.7006L-0.2725 -0.7145ZM-0.3075 -0.7455L-0.2725 -0.7594L-0.3075 -0.7594ZM0.2725 -0.7006L0.3075 -0.7006L0.3075 -0.7145ZM0.2725 -0.7455L0.3075 -0.7594L0.2725 -0.7594ZM-0.3075 -0.6895L-0.2725 -0.7006L-0.3075 -0.7006ZM-0.3075 -0.7594L-0.2725 -0.7594L-0.2725 -0.7705ZM0.2725 -0.6895L0.3075 -0.7006L0.2725 -0.7006ZM0.2725 -0.7594L0.3075 -0.7594L0.3075 -0.7705ZM-0.3075 -0.6895L-0.2725 -0.6895L-0.2725 -0.7006ZM-0.3075 -0.7594L-0.2725 -0.7705L-0.3075 -0.7705ZM0.2725 -0.6895L0.3075 -0.6895L0.3075 -0.7006ZM0.2725 -0.7594L0.3075 -0.7705L0.2725 -0.7705ZM-0.3075 -0.6824L-0.2725 -0.6895L-0.3075 -0.6895ZM-0.3075 -0.7705L-0.2725 -0.7705L-0.2725 -0.7776ZM0.2725 -0.6824L0.3075 -0.6895L0.2725 -0.6895ZM0.2725 -0.7705L0.3075 -0.7705L0.3075 -0.7776ZM-0.3075 -0.6824L-0.2725 -0.6824L-0.2725 -0.6895ZM-0.3075 -0.7705L-0.2725 -0.7776L-0.3075 -0.7776ZM0.2725 -0.6824L0.3075 -0.6824L0.3075 -0.6895ZM0.2725 -0.7705L0.3075 -0.7776L0.2725 -0.7776Z" fill="#020203" fill-opacity="1"/><path d="M-0.318 -0.724L-0.306 -0.73L-0.318 -0.73ZM-0.318 -0.73L-0.306 -0.73L-0.306 -0.736ZM0.306 -0.724L0.318 -0.73L0.306 -0.73ZM0.306 -0.73L0.318 -0.73L0.318 -0.736ZM-0.318 -0.724L-0.306 -0.724L-0.306 -0.73ZM-0.318 -0.73L-0.306 -0.736L-0.318 -0.736ZM0.306 -0.724L0.318 -0.724L0.318 -0.73ZM0.306 -0.73L0.318 -0.736L0.306 -0.736Z" fill="#7c8996" fill-opacity="1"/><path d="M-0.3075 -0.68L-0.2725 -0.6824L-0.3075 -0.6824ZM-0.3075 -0.7776L-0.2725 -0.7776L-0.2725 -0.78ZM0.2725 -0.68L0.3075 -0.6824L0.2725 -0.6824ZM0.2725 -0.7776L0.3075 -0.7776L0.3075 -0.78Z" fill="#020202" fill-opacity="1"/><path d="M-0.318 -0.7196L-0.306 -0.724L-0.318 -0.724ZM-0.318 -0.736L-0.306 -0.736L-0.306 -0.7404ZM0.306 -0.7196L0.318 -0.724L0.306 -0.724ZM0.306 -0.736L0.318 -0.736L0.318 -0.7404ZM-0.318 -0.7196L-0.306 -0.7196L-0.306 -0.724ZM-0.318 -0.736L-0.306 -0.7404L-0.318 -0.7404ZM0.306 -0.7196L0.318 -0.7196L0.318 -0.724ZM0.306 -0.736L0.318 -0.7404L0.306 -0.7404Z" fill="#77838f" fill-opacity="1"/><path d="M-0.3075 -0.68L-0.2725 -0.68L-0.2725 -0.6824ZM-0.3075 -0.7776L-0.2725 -0.78L-0.3075 -0.78ZM0.2725 -0.68L0.3075 -0.68L0.3075 -0.6824ZM0.2725 -0.7776L0.3075 -0.78L0.2725 -0.78Z" fill="#020202" fill-opacity="1"/><path d="M-0.325 -0.66L-0.29 -0.74L-0.36 -0.74ZM-0.325 -0.66L-0.275 -0.725L-0.29 -0.74ZM-0.325 -0.66L-0.275 -0.595L-0.275 -0.725ZM-0.325 -0.66L-0.29 -0.58L-0.275 -0.595ZM-0.325 -0.66L-0.36 -0.58L-0.29 -0.58ZM-0.325 -0.66L-0.375 -0.595L-0.36 -0.58ZM-0.325 -0.66L-0.375 -0.725L-0.375 -0.595ZM-0.325 -0.66L-0.36 -0.74L-0.375 -0.725ZM-0.325 0.67L-0.29 0.59L-0.36 0.59ZM-0.325 0.67L-0.275 0.605L-0.29 0.59ZM-0.325 0.67L-0.275 0.735L-0.275 0.605ZM-0.325 0.67L-0.29 0.75L-0.275 0.735ZM-0.325 0.67L-0.36 0.75L-0.29 0.75ZM-0.325 0.67L-0.375 0.735L-0.36 0.75ZM-0.325 0.67L-0.375 0.605L-0.375 0.735ZM-0.325 0.67L-0.36 0.59L-0.375 0.605ZM0.325 -0.66L0.36 -0.74L0.29 -0.74ZM0.325 -0.66L0.375 -0.725L0.36 -0.74ZM0.325 -0.66L0.375 -0.595L0.375 -0.725ZM0.325 -0.66L0.36 -0.58L0.375 -0.595ZM0.325 -0.66L0.29 -0.58L0.36 -0.58ZM0.325 -0.66L0.275 -0.595L0.29 -0.58ZM0.325 -0.66L0.275 -0.725L0.275 -0.595ZM0.325 -0.66L0.29 -0.74L0.275 -0.725ZM0.325 0.67L0.36 0.59L0.29 0.59ZM0.325 0.67L0.375 0.605L0.36 0.59ZM0.325 0.67L0.375 0.735L0.375 0.605ZM0.325 0.67L0.36 0.75L0.375 0.735ZM0.325 0.67L0.29 0.75L0.36 0.75ZM0.325 0.67L0.275 0.735L0.29 0.75ZM0.325 0.67L0.275 0.605L0.275 0.735ZM0.325 0.67L0.29 0.59L0.275 0.605Z" fill="#020203" fill-opacity="1"/><path d="M-0.318 -0.718L-0.306 -0.7196L-0.318 -0.7196ZM-0.318 -0.7404L-0.306 -0.7404L-0.306 -0.742ZM0.306 -0.718L0.318 -0.7196L0.306 -0.7196ZM0.306 -0.7404L0.318 -0.7404L0.318 -0.742ZM-0.318 -0.718L-0.306 -0.718L-0.306 -0.7196ZM-0.318 -0.7404L-0.306 -0.742L-0.318 -0.742ZM0.306 -0.718L0.318 -0.718L0.318 -0.7196ZM0.306 -0.7404L0.318 -0.742L0.306 -0.742Z" fill="#69747f" fill-opacity="1"/><path d="M-0.306 0.795L-0.3 0.809L-0.3 0.795ZM-0.3 0.795L-0.3 0.809L-0.294 0.809ZM0.294 0.795L0.3 0.809L0.3 0.795ZM0.3 0.795L0.3 0.809L0.306 0.809ZM-0.306 0.795L-0.306 0.809L-0.3 0.809ZM-0.3 0.795L-0.294 0.809L-0.294 0.795ZM0.294 0.795L0.294 0.809L0.3 0.809ZM0.3 0.795L0.306 0.809L0.306 0.795Z" fill="#7c8996" fill-opacity="1"/><path d="M-0.3104 0.795L-0.306 0.809L-0.306 0.795ZM-0.294 0.795L-0.294 0.809L-0.2896 0.809ZM0.2896 0.795L0.294 0.809L0.294 0.795ZM0.306 0.795L0.306 0.809L0.3104 0.809ZM-0.3104 0.795L-0.3104 0.809L-0.306 0.809ZM-0.294 0.795L-0.2896 0.809L-0.2896 0.795ZM0.2896 0.795L0.2896 0.809L0.294 0.809ZM0.306 0.795L0.3104 0.809L0.3104 0.795Z" fill="#77838f" fill-opacity="1"/><path d="M0 0L0.355 -0.81L-0.355 -0.81ZM0 0L0.39 -0.775L0.355 -0.81ZM0 0L0.39 0.775L0.39 -0.775ZM0 0L0.355 0.81L0.39 0.775ZM0 0L-0.355 0.81L0.355 0.81ZM0 0L-0.39 0.775L-0.355 0.81ZM0 0L-0.39 -0.775L-0.39 0.775ZM0 0L-0.355 -0.81L-0.39 -0.775Z" fill="#06080a" fill-opacity="1"/><path d="M-0.312 0.795L-0.3104 0.809L-0.3104 0.795ZM-0.2896 0.795L-0.2896 0.809L-0.288 0.809ZM0.288 0.795L0.2896 0.809L0.2896 0.795ZM0.3104 0.795L0.3104 0.809L0.312 0.809ZM-0.312 0.795L-0.312 0.809L-0.3104 0.809ZM-0.2896 0.795L-0.288 0.809L-0.288 0.795ZM0.288 0.795L0.288 0.809L0.2896 0.809ZM0.3104 0.795L0.312 0.809L0.312 0.795Z" fill="#69747f" fill-opacity="1"/><path d="M-0.245 -0.48L-0.245 0.76L0.245 0.76ZM-0.245 -0.48L0.245 0.76L0.245 -0.48Z" fill="#060708" fill-opacity="1"/><path d="M-0.345 0.765L-0.345 0.81L0.345 0.81ZM-0.345 0.765L0.345 0.81L0.345 0.765Z" fill="#13161a" fill-opacity="1"/><path d="M-0.376 -0.6171L-0.346 -0.63L-0.376 -0.63ZM-0.376 -0.63L-0.346 -0.63L-0.346 -0.6429ZM0.346 -0.6171L0.376 -0.63L0.346 -0.63ZM0.346 -0.63L0.376 -0.63L0.376 -0.6429ZM-0.376 -0.6171L-0.346 -0.6171L-0.346 -0.63ZM-0.376 -0.63L-0.346 -0.6429L-0.376 -0.6429ZM0.346 -0.6171L0.376 -0.6171L0.376 -0.63ZM0.346 -0.63L0.376 -0.6429L0.346 -0.6429Z" fill="#e03009" fill-opacity="1"/><path d="M-0.376 -0.605L-0.346 -0.6171L-0.376 -0.6171ZM-0.376 -0.6429L-0.346 -0.6429L-0.346 -0.655ZM0.346 -0.605L0.376 -0.6171L0.346 -0.6171ZM0.346 -0.6429L0.376 -0.6429L0.376 -0.655ZM-0.376 -0.605L-0.346 -0.605L-0.346 -0.6171ZM-0.376 -0.6429L-0.346 -0.655L-0.376 -0.655ZM0.346 -0.605L0.376 -0.605L0.376 -0.6171ZM0.346 -0.6429L0.376 -0.655L0.346 -0.655Z" fill="#de3009" fill-opacity="1"/><path d="M-0.264 -0.495L-0.264 0.735L-0.252 0.735ZM-0.264 -0.495L-0.252 0.735L-0.252 -0.495ZM0.252 -0.495L0.252 0.735L0.264 0.735ZM0.252 -0.495L0.264 0.735L0.264 -0.495Z" fill="#e03009" fill-opacity="1"/><path d="M-0.376 -0.5946L-0.346 -0.605L-0.376 -0.605ZM-0.376 -0.655L-0.346 -0.655L-0.346 -0.6654ZM0.346 -0.5946L0.376 -0.605L0.346 -0.605ZM0.346 -0.655L0.376 -0.655L0.376 -0.6654ZM-0.376 -0.5946L-0.346 -0.5946L-0.346 -0.605ZM-0.376 -0.655L-0.346 -0.6654L-0.376 -0.6654ZM0.346 -0.5946L0.376 -0.5946L0.376 -0.605ZM0.346 -0.655L0.376 -0.6654L0.346 -0.6654Z" fill="#d92f09" fill-opacity="1"/><path d="M-0.37 -0.515L-0.37 0.755L-0.265 0.755ZM-0.37 -0.515L-0.265 0.755L-0.265 -0.515ZM0.265 -0.515L0.265 0.755L0.37 0.755ZM0.265 -0.515L0.37 0.755L0.37 -0.515Z" fill="#13161a" fill-opacity="1"/><path d="M-0.376 -0.5867L-0.346 -0.5946L-0.376 -0.5946ZM-0.376 -0.6654L-0.346 -0.6654L-0.346 -0.6733ZM0.346 -0.5867L0.376 -0.5946L0.346 -0.5946ZM0.346 -0.6654L0.376 -0.6654L0.376 -0.6733Z" fill="#d12d08" fill-opacity="1"/><path d="M-0.355 -0.48L-0.355 0.72L-0.28 0.72ZM-0.355 -0.48L-0.28 0.72L-0.28 -0.48ZM0.28 -0.48L0.28 0.72L0.355 0.72ZM0.28 -0.48L0.355 0.72L0.355 -0.48Z" fill="#020203" fill-opacity="1"/><path d="M-0.376 -0.5867L-0.346 -0.5867L-0.346 -0.5946ZM-0.376 -0.6654L-0.346 -0.6733L-0.376 -0.6733ZM0.346 -0.5867L0.376 -0.5867L0.376 -0.5946ZM0.346 -0.6654L0.376 -0.6733L0.346 -0.6733Z" fill="#d12d08" fill-opacity="1"/><path d="M-0.3525 -0.4135L-0.3525 -0.4065L-0.2825 -0.4065ZM-0.3525 -0.4135L-0.2825 -0.4065L-0.2825 -0.4135ZM-0.3525 -0.3185L-0.3525 -0.3115L-0.2825 -0.3115ZM-0.3525 -0.3185L-0.2825 -0.3115L-0.2825 -0.3185ZM-0.3525 -0.2235L-0.3525 -0.2165L-0.2825 -0.2165ZM-0.3525 -0.2235L-0.2825 -0.2165L-0.2825 -0.2235ZM-0.3525 -0.1285L-0.3525 -0.1215L-0.2825 -0.1215ZM-0.3525 -0.1285L-0.2825 -0.1215L-0.2825 -0.1285ZM-0.3525 -0.0335L-0.3525 -0.0265L-0.2825 -0.0265ZM-0.3525 -0.0335L-0.2825 -0.0265L-0.2825 -0.0335ZM-0.3525 0.0615L-0.3525 0.0685L-0.2825 0.0685ZM-0.3525 0.0615L-0.2825 0.0685L-0.2825 0.0615ZM-0.3525 0.1565L-0.3525 0.1635L-0.2825 0.1635ZM-0.3525 0.1565L-0.2825 0.1635L-0.2825 0.1565ZM-0.3525 0.2515L-0.3525 0.2585L-0.2825 0.2585ZM-0.3525 0.2515L-0.2825 0.2585L-0.2825 0.2515ZM-0.3525 0.3465L-0.3525 0.3535L-0.2825 0.3535ZM-0.3525 0.3465L-0.2825 0.3535L-0.2825 0.3465ZM-0.3525 0.4415L-0.3525 0.4485L-0.2825 0.4485ZM-0.3525 0.4415L-0.2825 0.4485L-0.2825 0.4415ZM-0.3525 0.5365L-0.3525 0.5435L-0.2825 0.5435ZM-0.3525 0.5365L-0.2825 0.5435L-0.2825 0.5365ZM-0.3525 0.6315L-0.3525 0.6385L-0.2825 0.6385ZM-0.3525 0.6315L-0.2825 0.6385L-0.2825 0.6315ZM0.2825 -0.4135L0.2825 -0.4065L0.3525 -0.4065ZM0.2825 -0.4135L0.3525 -0.4065L0.3525 -0.4135ZM0.2825 -0.3185L0.2825 -0.3115L0.3525 -0.3115ZM0.2825 -0.3185L0.3525 -0.3115L0.3525 -0.3185ZM0.2825 -0.2235L0.2825 -0.2165L0.3525 -0.2165ZM0.2825 -0.2235L0.3525 -0.2165L0.3525 -0.2235ZM0.2825 -0.1285L0.2825 -0.1215L0.3525 -0.1215ZM0.2825 -0.1285L0.3525 -0.1215L0.3525 -0.1285ZM0.2825 -0.0335L0.2825 -0.0265L0.3525 -0.0265ZM0.2825 -0.0335L0.3525 -0.0265L0.3525 -0.0335ZM0.2825 0.0615L0.2825 0.0685L0.3525 0.0685ZM0.2825 0.0615L0.3525 0.0685L0.3525 0.0615ZM0.2825 0.1565L0.2825 0.1635L0.3525 0.1635ZM0.2825 0.1565L0.3525 0.1635L0.3525 0.1565ZM0.2825 0.2515L0.2825 0.2585L0.3525 0.2585ZM0.2825 0.2515L0.3525 0.2585L0.3525 0.2515ZM0.2825 0.3465L0.2825 0.3535L0.3525 0.3535ZM0.2825 0.3465L0.3525 0.3535L0.3525 0.3465ZM0.2825 0.4415L0.2825 0.4485L0.3525 0.4485ZM0.2825 0.4415L0.3525 0.4485L0.3525 0.4415ZM0.2825 0.5365L0.2825 0.5435L0.3525 0.5435ZM0.2825 0.5365L0.3525 0.5435L0.3525 0.5365ZM0.2825 0.6315L0.2825 0.6385L0.3525 0.6385ZM0.2825 0.6315L0.3525 0.6385L0.3525 0.6315Z" fill="#13161a" fill-opacity="1"/><path d="M-0.376 -0.5817L-0.346 -0.5867L-0.376 -0.5867ZM-0.376 -0.6733L-0.346 -0.6733L-0.346 -0.6783ZM0.346 -0.5817L0.376 -0.5867L0.346 -0.5867ZM0.346 -0.6733L0.376 -0.6733L0.376 -0.6783Z" fill="#c52b08" fill-opacity="1"/><path d="M-0.386 -0.6231L-0.374 -0.63L-0.386 -0.63ZM-0.386 -0.63L-0.374 -0.63L-0.374 -0.6369ZM0.374 -0.6231L0.386 -0.63L0.374 -0.63ZM0.374 -0.63L0.386 -0.63L0.386 -0.6369ZM-0.386 -0.6231L-0.374 -0.6231L-0.374 -0.63ZM-0.386 -0.63L-0.374 -0.6369L-0.386 -0.6369ZM0.374 -0.6231L0.386 -0.6231L0.386 -0.63ZM0.374 -0.63L0.386 -0.6369L0.374 -0.6369Z" fill="#7d8996" fill-opacity="1"/><path d="M-0.376 -0.5817L-0.346 -0.5817L-0.346 -0.5867ZM-0.376 -0.6733L-0.346 -0.6783L-0.376 -0.6783ZM0.346 -0.5817L0.376 -0.5817L0.376 -0.5867ZM0.346 -0.6733L0.376 -0.6783L0.346 -0.6783Z" fill="#c52b08" fill-opacity="1"/><path d="M-0.386 -0.6173L-0.374 -0.6231L-0.386 -0.6231ZM-0.386 -0.6369L-0.374 -0.6369L-0.374 -0.6427ZM0.374 -0.6173L0.386 -0.6231L0.374 -0.6231ZM0.374 -0.6369L0.386 -0.6369L0.386 -0.6427ZM-0.386 -0.6173L-0.374 -0.6173L-0.374 -0.6231ZM-0.386 -0.6369L-0.374 -0.6427L-0.386 -0.6427ZM0.374 -0.6173L0.386 -0.6173L0.386 -0.6231ZM0.374 -0.6369L0.386 -0.6427L0.374 -0.6427Z" fill="#798692" fill-opacity="1"/><path d="M-0.386 -0.6134L-0.374 -0.6173L-0.386 -0.6173ZM-0.386 -0.6427L-0.374 -0.6427L-0.374 -0.6466ZM0.374 -0.6134L0.386 -0.6173L0.374 -0.6173ZM0.374 -0.6427L0.386 -0.6427L0.386 -0.6466ZM-0.386 -0.6134L-0.374 -0.6134L-0.374 -0.6173ZM-0.386 -0.6427L-0.374 -0.6466L-0.386 -0.6466ZM0.374 -0.6134L0.386 -0.6134L0.386 -0.6173ZM0.374 -0.6427L0.386 -0.6466L0.374 -0.6466Z" fill="#737e8a" fill-opacity="1"/><path d="M-0.376 -0.58L-0.346 -0.5817L-0.376 -0.5817ZM-0.376 -0.6783L-0.346 -0.6783L-0.346 -0.68ZM0.346 -0.58L0.376 -0.5817L0.346 -0.5817ZM0.346 -0.6783L0.376 -0.6783L0.376 -0.68Z" fill="#b32707" fill-opacity="1"/><path d="M-0.386 -0.612L-0.374 -0.6134L-0.386 -0.6134ZM-0.386 -0.6466L-0.374 -0.6466L-0.374 -0.648ZM0.374 -0.612L0.386 -0.6134L0.374 -0.6134ZM0.374 -0.6466L0.386 -0.6466L0.386 -0.648Z" fill="#67717c" fill-opacity="1"/><path d="M-0.376 -0.58L-0.346 -0.58L-0.346 -0.5817ZM-0.376 -0.6783L-0.346 -0.68L-0.376 -0.68ZM0.346 -0.58L0.376 -0.58L0.376 -0.5817ZM0.346 -0.6783L0.376 -0.68L0.346 -0.68Z" fill="#b32707" fill-opacity="1"/><path d="M-0.386 -0.612L-0.374 -0.612L-0.374 -0.6134ZM-0.386 -0.6466L-0.374 -0.648L-0.386 -0.648ZM0.374 -0.612L0.386 -0.612L0.386 -0.6134ZM0.374 -0.6466L0.386 -0.648L0.374 -0.648Z" fill="#67717c" fill-opacity="1"/><path d="M0 -0.64L0.31 -0.81L-0.31 -0.81ZM0 -0.64L0.35 -0.77L0.31 -0.81ZM0 -0.64L0.35 -0.51L0.35 -0.77ZM0 -0.64L0.31 -0.47L0.35 -0.51ZM0 -0.64L-0.31 -0.47L0.31 -0.47ZM0 -0.64L-0.35 -0.51L-0.31 -0.47ZM0 -0.64L-0.35 -0.77L-0.35 -0.51ZM0 -0.64L-0.31 -0.81L-0.35 -0.77Z" fill="#13161a" fill-opacity="1"/><path d="M-0.206 -0.745L-0.206 -0.635L-0.194 -0.635ZM-0.206 -0.745L-0.194 -0.635L-0.194 -0.745ZM-0.156 -0.745L-0.156 -0.635L-0.144 -0.635ZM-0.156 -0.745L-0.144 -0.635L-0.144 -0.745ZM-0.106 -0.745L-0.106 -0.635L-0.094 -0.635ZM-0.106 -0.745L-0.094 -0.635L-0.094 -0.745ZM-0.056 -0.745L-0.056 -0.635L-0.044 -0.635ZM-0.056 -0.745L-0.044 -0.635L-0.044 -0.745ZM-0.006 -0.745L-0.006 -0.635L0.006 -0.635ZM-0.006 -0.745L0.006 -0.635L0.006 -0.745ZM0.044 -0.745L0.044 -0.635L0.056 -0.635ZM0.044 -0.745L0.056 -0.635L0.056 -0.745ZM0.094 -0.745L0.094 -0.635L0.106 -0.635ZM0.094 -0.745L0.106 -0.635L0.106 -0.745ZM0.144 -0.745L0.144 -0.635L0.156 -0.635ZM0.144 -0.745L0.156 -0.635L0.156 -0.745ZM0.194 -0.745L0.194 -0.635L0.206 -0.635ZM0.194 -0.745L0.206 -0.635L0.206 -0.745Z" fill="#020203" fill-opacity="1"/><path d="M-0.355 -0.6723L-0.295 -0.5523L-0.295 -0.6723ZM0.295 -0.6723L0.355 -0.5523L0.355 -0.6723ZM-0.355 -0.6723L-0.355 -0.5523L-0.295 -0.5523ZM0.295 -0.6723L0.295 -0.5523L0.355 -0.5523Z" fill="#050608" fill-opacity="1"/><path d="M-0.325 -0.5064L-0.325 -0.0806L-0.3173 -0.0804ZM0.325 -0.5064L0.325 -0.0806L0.3327 -0.0804ZM-0.3327 -0.5062L-0.3327 -0.0804L-0.325 -0.0806ZM0.3173 -0.5062L0.3173 -0.0804L0.325 -0.0806ZM-0.3173 -0.5062L-0.3173 -0.0804L-0.3103 -0.0799ZM0.3327 -0.5062L0.3327 -0.0804L0.3397 -0.0799ZM-0.3397 -0.5057L-0.3397 -0.0799L-0.3327 -0.0804ZM0.3103 -0.5057L0.3103 -0.0799L0.3173 -0.0804ZM-0.3103 -0.5057L-0.3103 -0.0799L-0.3048 -0.0792ZM0.3397 -0.5057L0.3397 -0.0799L0.3452 -0.0792ZM-0.3452 -0.5049L-0.3452 -0.0792L-0.3397 -0.0799ZM0.3048 -0.5049L0.3048 -0.0792L0.3103 -0.0799ZM-0.3048 -0.5049L-0.3048 -0.0792L-0.3012 -0.0782ZM0.3452 -0.5049L0.3452 -0.0792L0.3488 -0.0782ZM-0.3488 -0.504L-0.3488 -0.0782L-0.3452 -0.0792ZM0.3012 -0.504L0.3012 -0.0782L0.3048 -0.0792Z" fill="#020203" fill-opacity="1"/><path d="M-0.3012 -0.504L-0.3012 -0.0782L-0.3 -0.0771ZM0.3488 -0.504L0.3488 -0.0782L0.35 -0.0771Z" fill="#020202" fill-opacity="1"/><path d="M-0.3327 -0.5062L-0.325 -0.0806L-0.325 -0.5064ZM0.3173 -0.5062L0.325 -0.0806L0.325 -0.5064ZM-0.325 -0.5064L-0.3173 -0.0804L-0.3173 -0.5062ZM0.325 -0.5064L0.3327 -0.0804L0.3327 -0.5062Z" fill="#020203" fill-opacity="1"/><path d="M-0.35 -0.5029L-0.35 -0.0771L-0.3488 -0.0782ZM0.3 -0.5029L0.3 -0.0771L0.3012 -0.0782Z" fill="#020202" fill-opacity="1"/><path d="M-0.3397 -0.5057L-0.3327 -0.0804L-0.3327 -0.5062ZM0.3103 -0.5057L0.3173 -0.0804L0.3173 -0.5062ZM-0.3173 -0.5062L-0.3103 -0.0799L-0.3103 -0.5057ZM0.3327 -0.5062L0.3397 -0.0799L0.3397 -0.5057ZM-0.3452 -0.5049L-0.3397 -0.0799L-0.3397 -0.5057ZM0.3048 -0.5049L0.3103 -0.0799L0.3103 -0.5057ZM-0.3103 -0.5057L-0.3048 -0.0792L-0.3048 -0.5049ZM0.3397 -0.5057L0.3452 -0.0792L0.3452 -0.5049ZM-0.3488 -0.504L-0.3452 -0.0792L-0.3452 -0.5049ZM0.3012 -0.504L0.3048 -0.0792L0.3048 -0.5049ZM-0.3048 -0.5049L-0.3012 -0.0782L-0.3012 -0.504ZM0.3452 -0.5049L0.3488 -0.0782L0.3488 -0.504Z" fill="#020203" fill-opacity="1"/><path d="M-0.35 -0.5029L-0.3488 -0.0782L-0.3488 -0.504ZM0.3 -0.5029L0.3012 -0.0782L0.3012 -0.504ZM-0.3012 -0.504L-0.3 -0.0771L-0.3 -0.5029ZM0.3488 -0.504L0.35 -0.0771L0.35 -0.5029ZM-0.325 -0.5029L-0.325 -0.5064L-0.3327 -0.5062ZM-0.325 -0.5029L-0.3173 -0.5062L-0.325 -0.5064ZM0.325 -0.5029L0.325 -0.5064L0.3173 -0.5062ZM0.325 -0.5029L0.3327 -0.5062L0.325 -0.5064ZM-0.325 -0.5029L-0.3327 -0.5062L-0.3397 -0.5057ZM-0.325 -0.5029L-0.3103 -0.5057L-0.3173 -0.5062ZM0.325 -0.5029L0.3173 -0.5062L0.3103 -0.5057ZM0.325 -0.5029L0.3397 -0.5057L0.3327 -0.5062ZM-0.325 -0.5029L-0.3397 -0.5057L-0.3452 -0.5049ZM-0.325 -0.5029L-0.3048 -0.5049L-0.3103 -0.5057ZM0.325 -0.5029L0.3103 -0.5057L0.3048 -0.5049ZM0.325 -0.5029L0.3452 -0.5049L0.3397 -0.5057ZM-0.325 -0.5029L-0.3452 -0.5049L-0.3488 -0.504ZM-0.325 -0.5029L-0.3012 -0.504L-0.3048 -0.5049ZM0.325 -0.5029L0.3048 -0.5049L0.3012 -0.504ZM0.325 -0.5029L0.3488 -0.504L0.3452 -0.5049ZM-0.325 -0.5029L-0.3488 -0.504L-0.35 -0.5029ZM-0.325 -0.5029L-0.3 -0.5029L-0.3012 -0.504ZM0.325 -0.5029L0.3012 -0.504L0.3 -0.5029ZM0.325 -0.5029L0.35 -0.5029L0.3488 -0.504ZM-0.325 -0.5029L-0.3012 -0.5018L-0.3 -0.5029ZM-0.325 -0.5029L-0.35 -0.5029L-0.3488 -0.5018ZM0.325 -0.5029L0.3488 -0.5018L0.35 -0.5029ZM0.325 -0.5029L0.3 -0.5029L0.3012 -0.5018ZM-0.325 -0.5029L-0.3048 -0.5008L-0.3012 -0.5018ZM-0.325 -0.5029L-0.3488 -0.5018L-0.3452 -0.5008ZM0.325 -0.5029L0.3452 -0.5008L0.3488 -0.5018ZM0.325 -0.5029L0.3012 -0.5018L0.3048 -0.5008ZM-0.325 -0.5029L-0.3103 -0.5001L-0.3048 -0.5008ZM-0.325 -0.5029L-0.3452 -0.5008L-0.3397 -0.5001ZM0.325 -0.5029L0.3397 -0.5001L0.3452 -0.5008ZM0.325 -0.5029L0.3048 -0.5008L0.3103 -0.5001ZM-0.325 -0.5029L-0.3173 -0.4996L-0.3103 -0.5001ZM-0.325 -0.5029L-0.3397 -0.5001L-0.3327 -0.4996ZM0.325 -0.5029L0.3327 -0.4996L0.3397 -0.5001ZM0.325 -0.5029L0.3103 -0.5001L0.3173 -0.4996ZM-0.325 -0.5029L-0.325 -0.4994L-0.3173 -0.4996ZM-0.325 -0.5029L-0.3327 -0.4996L-0.325 -0.4994ZM0.325 -0.5029L0.325 -0.4994L0.3327 -0.4996ZM0.325 -0.5029L0.3173 -0.4996L0.325 -0.4994Z" fill="#020202" fill-opacity="1"/><path d="M-0.325 -0.5126L0.325 -0.52L-0.325 -0.52ZM-0.325 -0.52L0.325 -0.52L0.325 -0.5274ZM-0.325 -0.5126L0.325 -0.5126L0.325 -0.52ZM-0.325 -0.52L0.325 -0.5274L-0.325 -0.5274ZM-0.325 -0.5059L0.325 -0.5126L-0.325 -0.5126ZM-0.325 -0.5274L0.325 -0.5274L0.325 -0.5341ZM-0.325 -0.5059L0.325 -0.5059L0.325 -0.5126ZM-0.325 -0.5274L0.325 -0.5341L-0.325 -0.5341Z" fill="#06080a" fill-opacity="1"/><path d="M-0.325 -0.5006L0.325 -0.5059L-0.325 -0.5059ZM-0.325 -0.5341L0.325 -0.5341L0.325 -0.5394ZM-0.345 -0.5194L-0.345 -0.4394L-0.305 -0.4394ZM0.305 -0.5194L0.305 -0.4394L0.345 -0.4394ZM-0.325 -0.5006L0.325 -0.5006L0.325 -0.5059ZM-0.325 -0.5341L0.325 -0.5394L-0.325 -0.5394ZM-0.325 -0.4972L0.325 -0.5006L-0.325 -0.5006ZM-0.325 -0.5394L0.325 -0.5394L0.325 -0.5428ZM-0.325 -0.4972L0.325 -0.4972L0.325 -0.5006ZM-0.325 -0.5394L0.325 -0.5428L-0.325 -0.5428Z" fill="#060709" fill-opacity="1"/><path d="M0.325 -0.4585L-0.325 -0.4585L-0.325 -0.4094Z" fill="#131519" fill-opacity="1"/><path d="M-0.345 -0.5406L-0.305 -0.5194L-0.305 -0.5406ZM0.305 -0.5406L0.345 -0.5194L0.345 -0.5406Z" fill="#060709" fill-opacity="1"/><path d="M-0.325 -0.496L0.325 -0.4972L-0.325 -0.4972ZM-0.325 -0.5428L0.325 -0.5428L0.325 -0.544ZM-0.325 -0.496L0.325 -0.496L0.325 -0.4972ZM-0.325 -0.5428L0.325 -0.544L-0.325 -0.544Z" fill="#050608" fill-opacity="1"/><path d="M-0.345 -0.5194L-0.305 -0.4394L-0.305 -0.5194ZM0.305 -0.5194L0.345 -0.4394L0.345 -0.5194Z" fill="#060709" fill-opacity="1"/><path d="M0.36 -0.4786L0.325 -0.4585L0.325 -0.4094Z" fill="#121418" fill-opacity="1"/><path d="M0.325 -0.4585L-0.325 -0.4094L0.325 -0.4094Z" fill="#131519" fill-opacity="1"/><path d="M-0.345 -0.5406L-0.345 -0.5194L-0.305 -0.5194ZM0.305 -0.5406L0.305 -0.5194L0.345 -0.5194Z" fill="#060709" fill-opacity="1"/><path d="M-0.325 -0.4585L-0.36 -0.4786L-0.36 -0.4295ZM-0.325 -0.4585L-0.36 -0.4295L-0.325 -0.4094ZM0.36 -0.4786L0.325 -0.4094L0.36 -0.4295Z" fill="#121418" fill-opacity="1"/><path d="M0.0145 -0.4319L-0.0145 -0.4319L-0.0145 -0.4114Z" fill="#da2f09" fill-opacity="1"/><path d="M0.0225 -0.4365L0.0145 -0.4319L0.0145 -0.4114Z" fill="#cf2d08" fill-opacity="1"/><path d="M0 -0.4954L-0.325 -0.4094L0.325 -0.4094Z" fill="#121418" fill-opacity="1"/><path d="M-0.0825 -0.4366L-0.1175 -0.4366L-0.1175 -0.4252ZM0.1175 -0.4366L0.0825 -0.4366L0.0825 -0.4252Z" fill="#798692" fill-opacity="1"/><path d="M-0.0145 -0.4319L-0.0225 -0.4365L-0.0225 -0.416Z" fill="#cf2d08" fill-opacity="1"/><path d="M0.0145 -0.4319L-0.0145 -0.4114L0.0145 -0.4114Z" fill="#da2f09" fill-opacity="1"/><path d="M-0.0775 -0.4395L-0.0825 -0.4366L-0.0825 -0.4252ZM0.1225 -0.4395L0.1175 -0.4366L0.1175 -0.4252Z" fill="#737f8b" fill-opacity="1"/><path d="M-0.0825 -0.4366L-0.1175 -0.4252L-0.0825 -0.4252ZM0.1175 -0.4366L0.0825 -0.4252L0.1175 -0.4252Z" fill="#798692" fill-opacity="1"/><path d="M-0.1175 -0.4366L-0.1225 -0.4395L-0.1225 -0.428ZM0.0825 -0.4366L0.0775 -0.4395L0.0775 -0.428Z" fill="#737f8b" fill-opacity="1"/><path d="M-0.0145 -0.4319L-0.0225 -0.416L-0.0145 -0.4114Z" fill="#cf2d08" fill-opacity="1"/><path d="M-0.1175 -0.4366L-0.1225 -0.428L-0.1175 -0.4252ZM0.0825 -0.4366L0.0775 -0.428L0.0825 -0.4252Z" fill="#737f8b" fill-opacity="1"/><path d="M0.0225 -0.4365L0.0145 -0.4114L0.0225 -0.416Z" fill="#cf2d08" fill-opacity="1"/><path d="M-0.0775 -0.4395L-0.0825 -0.4252L-0.0775 -0.428ZM0.1225 -0.4395L0.1175 -0.4252L0.1225 -0.428ZM-0.1 -0.4323L-0.1175 -0.4252L-0.0825 -0.4252ZM0.1 -0.4323L0.0825 -0.4252L0.1175 -0.4252Z" fill="#737f8b" fill-opacity="1"/><path d="M0 -0.4954L0.325 -0.4094L0.36 -0.4295ZM0 -0.4954L-0.36 -0.4295L-0.325 -0.4094Z" fill="#121418" fill-opacity="1"/><path d="M-0.1 -0.4323L-0.0825 -0.4252L-0.0775 -0.428ZM-0.1 -0.4323L-0.1225 -0.428L-0.1175 -0.4252ZM0.1 -0.4323L0.1175 -0.4252L0.1225 -0.428ZM0.1 -0.4323L0.0775 -0.428L0.0825 -0.4252Z" fill="#737f8b" fill-opacity="1"/><path d="M0 -0.4229L-0.0145 -0.4114L0.0145 -0.4114ZM0 -0.4229L0.0145 -0.4114L0.0225 -0.416ZM0 -0.4229L-0.0225 -0.416L-0.0145 -0.4114Z" fill="#cf2d08" fill-opacity="1"/><path d="M-0.1 -0.4323L-0.0775 -0.428L-0.0775 -0.4366ZM-0.1 -0.4323L-0.1225 -0.4366L-0.1225 -0.428ZM0.1 -0.4323L0.1225 -0.428L0.1225 -0.4366ZM0.1 -0.4323L0.0775 -0.4366L0.0775 -0.428Z" fill="#737f8b" fill-opacity="1"/><path d="M-0.2375 -0.4518L-0.2925 -0.4518L-0.2925 -0.4452ZM0.2925 -0.4518L0.2375 -0.4518L0.2375 -0.4452ZM-0.2375 -0.4518L-0.2925 -0.4452L-0.2375 -0.4452ZM0.2925 -0.4518L0.2375 -0.4452L0.2925 -0.4452Z" fill="#020203" fill-opacity="1"/><path d="M-0.1 -0.4323L-0.0775 -0.4366L-0.0825 -0.4395ZM-0.1 -0.4323L-0.1175 -0.4395L-0.1225 -0.4366ZM0.1 -0.4323L0.1225 -0.4366L0.1175 -0.4395ZM0.1 -0.4323L0.0825 -0.4395L0.0775 -0.4366Z" fill="#737f8b" fill-opacity="1"/><path d="M0 -0.4229L0.0225 -0.416L0.0225 -0.4298ZM0 -0.4229L-0.0225 -0.4298L-0.0225 -0.416Z" fill="#cf2d08" fill-opacity="1"/><path d="M-0.1 -0.4323L-0.0825 -0.4395L-0.1175 -0.4395ZM0.1 -0.4323L0.1175 -0.4395L0.0825 -0.4395Z" fill="#737f8b" fill-opacity="1"/><path d="M-0.2175 -0.4633L-0.2375 -0.4518L-0.2375 -0.4452ZM0.3125 -0.4633L0.2925 -0.4518L0.2925 -0.4452ZM-0.2925 -0.4518L-0.3125 -0.4567L-0.2925 -0.4452ZM0.2375 -0.4518L0.2175 -0.4567L0.2375 -0.4452ZM-0.2925 -0.4518L-0.3125 -0.4633L-0.3125 -0.4567ZM0.2375 -0.4518L0.2175 -0.4633L0.2175 -0.4567Z" fill="#020203" fill-opacity="1"/><path d="M0 -0.4229L0.0225 -0.4298L0.0145 -0.4344ZM0 -0.4229L-0.0145 -0.4344L-0.0225 -0.4298Z" fill="#cf2d08" fill-opacity="1"/><path d="M-0.2175 -0.4633L-0.2375 -0.4452L-0.2175 -0.4567ZM0.3125 -0.4633L0.2925 -0.4452L0.3125 -0.4567Z" fill="#020203" fill-opacity="1"/><path d="M0 -0.4229L0.0145 -0.4344L-0.0145 -0.4344Z" fill="#cf2d08" fill-opacity="1"/><path d="M-0.265 -0.4782L-0.2925 -0.4452L-0.2375 -0.4452ZM0.265 -0.4782L0.2375 -0.4452L0.2925 -0.4452Z" fill="#020203" fill-opacity="1"/><path d="M0.153 -0.4653L-0.153 -0.4653L-0.153 -0.4571ZM0.153 -0.4653L-0.153 -0.4571L0.153 -0.4571Z" fill="#0f343b" fill-opacity="1"/><path d="M-0.265 -0.4782L-0.2375 -0.4452L-0.2175 -0.4567ZM-0.265 -0.4782L-0.3125 -0.4567L-0.2925 -0.4452ZM0.265 -0.4782L0.2925 -0.4452L0.3125 -0.4567ZM0.265 -0.4782L0.2175 -0.4567L0.2375 -0.4452Z" fill="#020203" fill-opacity="1"/><path d="M0.165 -0.4722L0.153 -0.4653L0.153 -0.4571ZM-0.153 -0.4653L-0.165 -0.464L-0.153 -0.4571ZM-0.153 -0.4653L-0.165 -0.4722L-0.165 -0.464ZM0.165 -0.4722L0.153 -0.4571L0.165 -0.464Z" fill="#0e3139" fill-opacity="1"/><path d="M-0.355 -0.4877L-0.295 -0.4877L-0.295 -0.5523ZM0.295 -0.4877L0.355 -0.4877L0.355 -0.5523ZM-0.355 -0.4877L-0.295 -0.5523L-0.355 -0.5523ZM0.295 -0.4877L0.355 -0.5523L0.295 -0.5523Z" fill="#06080a" fill-opacity="1"/><path d="M0 -0.5016L-0.153 -0.4571L0.153 -0.4571ZM0 -0.5016L0.153 -0.4571L0.165 -0.464ZM0 -0.5016L-0.165 -0.464L-0.153 -0.4571Z" fill="#0e3138" fill-opacity="1"/><path d="M-0.265 -0.4782L-0.2175 -0.4567L-0.2175 -0.4997ZM-0.265 -0.4782L-0.3125 -0.4997L-0.3125 -0.4567ZM0.265 -0.4782L0.3125 -0.4567L0.3125 -0.4997ZM0.265 -0.4782L0.2175 -0.4997L0.2175 -0.4567Z" fill="#020203" fill-opacity="1"/><path d="M0 -0.4954L0.36 -0.4295L0.36 -0.5614ZM0 -0.4954L-0.36 -0.5614L-0.36 -0.4295Z" fill="#121418" fill-opacity="1"/><path d="M-0.265 -0.4782L-0.2175 -0.4997L-0.2375 -0.5112ZM-0.265 -0.4782L-0.2925 -0.5112L-0.3125 -0.4997ZM0.265 -0.4782L0.3125 -0.4997L0.2925 -0.5112ZM0.265 -0.4782L0.2375 -0.5112L0.2175 -0.4997ZM-0.265 -0.4782L-0.2375 -0.5112L-0.2925 -0.5112ZM0.265 -0.4782L0.2925 -0.5112L0.2375 -0.5112Z" fill="#020203" fill-opacity="1"/><path d="M0 -0.5016L0.165 -0.464L0.165 -0.5391ZM0 -0.5016L-0.165 -0.5391L-0.165 -0.464ZM0 -0.5016L0.165 -0.5391L0.153 -0.546ZM0 -0.5016L-0.153 -0.546L-0.165 -0.5391ZM0 -0.5016L0.153 -0.546L-0.153 -0.546Z" fill="#0e3138" fill-opacity="1"/><path d="M0 -0.4954L0.36 -0.5614L0.325 -0.5815ZM0 -0.4954L-0.325 -0.5815L-0.36 -0.5614ZM0 -0.4954L0.325 -0.5815L-0.325 -0.5815Z" fill="#121418" fill-opacity="1"/></svg>
